<?xml version="1.0" encoding="utf-8"?>
<!-- Generator: Adobe Illustrator 18.0.0, SVG Export Plug-In . SVG Version: 6.00 Build 0)  -->
<!DOCTYPE svg PUBLIC "-//W3C//DTD SVG 1.1//EN" "http://www.w3.org/Graphics/SVG/1.1/DTD/svg11.dtd">
<svg version="1.1" id="Layer_1" xmlns="http://www.w3.org/2000/svg" xmlns:xlink="http://www.w3.org/1999/xlink" x="0px" y="0px"
	 viewBox="0 0 513.3 160.5" enable-background="new 0 0 513.3 160.5" xml:space="preserve">
<g>
	<g>
		<g>
			<g opacity="0.3">
				<path fill="#1592F1" d="M23.5,127.1L23.5,127.1c16.9,12.8,33.8,10.3,33.8,10.3c-1.1,0.1-2.3,0.1-3.4,0.1
					C35.6,137.5,23.6,127.2,23.5,127.1z"/>
				<path fill="#1592F1" d="M21.6,129.2c0,0,17,15.1,42.6,10.2c25.6-4.9,50.4-34.5,50.4-34.5H92.2L97.8,83h58.4L142.7,148h-24.1
					l2.6-17.9c0,0-26.6,20.8-49.6,21.9C51.9,152.9,36.5,147.3,21.6,129.2z"/>
				<path fill="#1592F1" d="M26,62.2c3.3,0.9,5.7,0.4,3.7-2.8c-2-3.1-0.4-10.3-3.3-7.2c-0.1,0.1-0.2,0.2-0.3,0.3
					c-0.7,1.1-1.4,2.2-2,3.4c0,0.4,0.2,0.8,0.6,1.2C26.3,58.7,22.6,61.3,26,62.2z"/>
				<path fill="#1592F1" d="M102.7,13.2C75.2,2.3,45.4,6.3,22.3,30.4C0.2,53.4-3.5,88,11.3,114.9c3.9,5.2,8,9.2,12.1,12.3l0.1-0.1
					c0.1,0.1,12.1,10.4,30.5,10.4c1.1,0,2.3-0.1,3.4-0.1c-17.5-5.4-33.2-19.8-40.5-39.6c-3.4-9.3-3.4-24.6-0.2-33.9
					c14.9-43.2,65.2-45.9,91-18.9L131,32.7C123.4,24.8,115.5,18.3,102.7,13.2z"/>
				<path fill="#1592F1" d="M31.7,46.8c-1.3,1.4-3.2,3-1.6,4.6c1.6,1.6-2,4.1,1.2,5c3.2,0.9,5.5,0.4,3.6-2.7
					C33,50.7,34.6,43.8,31.7,46.8z"/>
				<path fill="#1592F1" d="M21.8,60.5c-0.2,0.4-0.4,0.8-0.5,1.2C21.8,61.3,21.9,60.9,21.8,60.5z"/>
				<path fill="#1592F1" d="M29.5,112.8c2.2,0.9,2,0.2,3.6-3.7c1.6-3.9,1.1-6.4-0.4-4.8c-2.2,2.5-4.6,0.4-3.7,3
					C30,110,27.3,111.9,29.5,112.8z"/>
				<path fill="#1592F1" d="M101.8,62.8c0.9,2.3,1.2-2.5,2.8-4.1c1.6-1.6,2.7-2.3,2-5.3c-0.7-3-2-4.1-2-2.5c0,2.7,0.5,3.9-0.7,5.3
					C102.7,57.7,100.9,60.5,101.8,62.8z"/>
				<path fill="#1592F1" d="M89,91.8c0,1.5,0.8,3.4,1.7,4.4l2-7.8C91.5,90.4,89,89.2,89,91.8z"/>
				<path fill="#1592F1" d="M85.7,95.4c-1.8-3.9-8.3-11.2-8-7.7c0.1,2.1,2.3,2.8,3.9,5.9c1.7,3.1,3.3,5.6,4.7,5.7
					c0.5,0,1.9,0.4,3.5,0.7l0.6-2.2C88.3,97.6,86.4,97.1,85.7,95.4z"/>
				<path fill="#1592F1" d="M89,111.6c-1.4,3.3-5.1,10.9-1.7,9c2.5-1.4,5.4-3.6,7.6-4.1c2.8-2.4,5.3-5.2,7.5-8.1h-9.2
					C91.6,109,90,109.4,89,111.6z"/>
				<path fill="#1592F1" d="M99.8,78.4c-1.2-2.5-1.8-5.3-2.6-3c-0.6,1.7-0.7,3-0.1,4h3.2C100.1,79.1,100,78.8,99.8,78.4z"/>
				<path fill="#1592F1" d="M21.8,60.5c0.1,0.4,0,0.8-0.5,1.2c-0.4,1.1-0.9,2.2-1.3,3.3c-3,8.7-2.9,23.1,0.2,31.5
					c1.3,3.6,3,7.1,4.9,10.4c2-1.6,1.1-7,0.4-9.6c-0.7-2.7,5.2-4.6,7.1-9.4c2-4.8,1.6-6-1.4-5.2c-3,0.9-7.3-4.6-8.9-9.9
					c-1.6-5.4-0.7-4.3,2.7,1.2c3.4,5.5,3.2,7.6,6.8,5.9c3.6-1.8,10-3.7,9.6-7.3c-0.4-3.6-2.7-5.3-4.4-3.6c-1.8,1.8-5.7-3.6-5.2-5.2
					c0.5-1.6,3.6,0.7,5.9,2.5c2.3,1.8,4.4,2,7.5,1.6c3-0.4,3.6,1.8,5.3,4.1c1.8,2.3,2.5-2.1,4.1,0.7c1.6,2.8-1.2,4.6,1.8,8.9
					c3,4.3,4.8,5.2,5.3,1.1c0.5-4.1,1.1-5.8,3.7-8c2.7-2.2,4.3-6.1,6.8-3.1c2.5,3,0.2,6.6,4.1,7.8c3.9,1.2,4.3,2.3,8.2,3.7
					c3.9,1.4,5-3.7,2.5-6.9c-2.5-3.2,2.3-4.3,5.3-5.2c3-0.9,5-3.7,3.6-7.5c-1.4-3.7-6.2-9.6-3.6-10.9c2.7-1.2,5,0.5,5.9,3.7
					c0.9,3.2,3.7,0.5,0.7-3.9c-3-4.4,1.2-5.7,1.6-8.7c0-0.3,0-0.6-0.1-0.9C90.9,35.4,78.8,31,66.3,31C46.2,31,29.9,42,21.8,60.5z
					 M31.4,56.4c-3.2-0.9,0.4-3.4-1.2-5c-1.6-1.6,0.3-3.2,1.6-4.6c2.8-3,1.2,3.9,3.2,6.9C36.9,56.8,34.6,57.3,31.4,56.4z"/>
			</g>
			<g>
				<path fill="#1592F1" d="M23.1,126.7L23.1,126.7C40,139.5,56.9,137,56.9,137c-1.1,0.1-2.3,0.1-3.4,0.1
					C35.1,137.1,23.2,126.8,23.1,126.7z"/>
				<path fill="#1592F1" d="M21.2,128.8c0,0,17,15.1,42.6,10.2c25.6-4.9,50.4-34.5,50.4-34.5H91.8l5.7-21.8h58.4l-13.5,64.9h-24.1
					l2.6-17.9c0,0-26.6,20.8-49.6,21.9C51.4,152.5,36.1,146.8,21.2,128.8z"/>
				<path fill="#1592F1" d="M25.6,61.8c3.3,0.9,5.7,0.4,3.7-2.8c-2-3.1-0.4-10.3-3.3-7.2c-0.1,0.1-0.2,0.2-0.3,0.3
					c-0.7,1.1-1.4,2.2-2,3.4c0,0.4,0.2,0.8,0.6,1.2C25.9,58.3,22.2,60.9,25.6,61.8z"/>
				<path fill="#1592F1" d="M102.3,12.8C74.8,1.8,45,5.9,21.9,29.9C-0.2,53-3.9,87.5,10.8,114.5c3.9,5.2,8,9.2,12.1,12.3l0.1-0.1
					c0.1,0.1,12.1,10.4,30.5,10.4c1.1,0,2.3-0.1,3.4-0.1c-17.5-5.4-33.2-19.8-40.5-39.6C13,88.1,13,72.8,16.2,63.4
					c14.9-43.2,65.2-45.9,91-18.9l23.3-12.3C123,24.4,115.1,17.9,102.3,12.8z"/>
				<path fill="#1592F1" d="M31.3,46.4c-1.3,1.4-3.2,3-1.6,4.6c1.6,1.6-2,4.1,1.2,5c3.2,0.9,5.5,0.4,3.6-2.7
					C32.6,50.3,34.2,43.4,31.3,46.4z"/>
				<path fill="#1592F1" d="M21.4,60.1c-0.2,0.4-0.4,0.8-0.5,1.2C21.3,60.8,21.5,60.4,21.4,60.1z"/>
				<path fill="#1592F1" d="M29.1,112.4c2.2,0.9,2,0.2,3.6-3.7c1.6-3.9,1.1-6.4-0.4-4.8c-2.2,2.5-4.6,0.4-3.7,3
					C29.6,109.5,26.9,111.5,29.1,112.4z"/>
				<path fill="#1592F1" d="M101.4,62.4c0.9,2.3,1.2-2.5,2.8-4.1c1.6-1.6,2.7-2.3,2-5.3c-0.7-3-2-4.1-2-2.5c0,2.7,0.5,3.9-0.7,5.3
					C102.3,57.2,100.5,60.1,101.4,62.4z"/>
				<path fill="#1592F1" d="M88.6,91.4c0,1.5,0.8,3.4,1.7,4.4l2-7.8C91.1,90,88.6,88.8,88.6,91.4z"/>
				<path fill="#1592F1" d="M85.3,95c-1.8-3.9-8.3-11.2-8-7.7c0.1,2.1,2.3,2.8,3.9,5.9c1.7,3.1,3.3,5.6,4.7,5.7
					c0.5,0,1.9,0.4,3.5,0.7l0.6-2.2C87.9,97.1,86,96.6,85.3,95z"/>
				<path fill="#1592F1" d="M88.6,111.2c-1.4,3.3-5.1,10.9-1.7,9c2.5-1.4,5.4-3.6,7.6-4.1c2.8-2.4,5.3-5.2,7.5-8.1h-9.2
					C91.2,108.6,89.6,109,88.6,111.2z"/>
				<path fill="#1592F1" d="M99.4,78c-1.2-2.5-1.8-5.3-2.6-3c-0.6,1.7-0.7,3-0.1,4h3.2C99.7,78.7,99.6,78.3,99.4,78z"/>
				<path fill="#1592F1" d="M21.4,60.1c0.1,0.4,0,0.8-0.5,1.2c-0.4,1.1-0.9,2.2-1.3,3.3c-3,8.7-2.9,23.1,0.2,31.5
					c1.3,3.6,3,7.1,4.9,10.4c2-1.6,1.1-7,0.4-9.6c-0.7-2.7,5.2-4.6,7.1-9.4c2-4.8,1.6-6-1.4-5.2c-3,0.9-7.3-4.6-8.9-9.9
					c-1.6-5.4-0.7-4.3,2.7,1.2c3.4,5.5,3.2,7.6,6.8,5.9c3.6-1.8,10-3.7,9.6-7.3c-0.4-3.6-2.7-5.3-4.4-3.6c-1.8,1.8-5.7-3.6-5.2-5.2
					c0.5-1.6,3.6,0.7,5.9,2.5c2.3,1.8,4.4,2,7.5,1.6c3-0.4,3.6,1.8,5.3,4.1c1.8,2.3,2.5-2.1,4.1,0.7c1.6,2.8-1.2,4.6,1.8,8.9
					c3,4.3,4.8,5.2,5.3,1.1c0.5-4.1,1.1-5.8,3.7-8c2.7-2.2,4.3-6.1,6.8-3.1c2.5,3,0.2,6.6,4.1,7.8c3.9,1.2,4.3,2.3,8.2,3.7
					c3.9,1.4,5-3.7,2.5-6.9c-2.5-3.2,2.3-4.3,5.3-5.2c3-0.9,5-3.7,3.6-7.5c-1.4-3.7-6.2-9.6-3.6-10.9c2.7-1.2,5,0.5,5.9,3.7
					c0.9,3.2,3.7,0.5,0.7-3.9c-3-4.4,1.2-5.7,1.6-8.7c0-0.3,0-0.6-0.1-0.9c-9.5-7.7-21.6-12.1-34.1-12.1
					C45.8,30.6,29.5,41.5,21.4,60.1z M31,56c-3.2-0.9,0.4-3.4-1.2-5c-1.6-1.6,0.3-3.2,1.6-4.6c2.8-3,1.2,3.9,3.2,6.9
					C36.5,56.4,34.2,56.9,31,56z"/>
			</g>
		</g>
	</g>
	<g>
		<g>
			<path fill="#1592F1" d="M166.2,139.4c-6.6-6.1-9.8-13.6-9.8-22.7c0-9.1,3.3-16.6,9.8-22.7c6.4-5.8,14.1-8.8,23.1-8.8
				c9,0,16.7,2.9,23.1,8.8c6.6,6,9.8,13.6,9.8,22.7c0,9-3.3,16.6-9.8,22.7c-6.4,5.9-14.1,8.8-23.1,8.8
				C180.3,148.2,172.6,145.2,166.2,139.4z M201.2,128.9c2.8-3.1,4.2-7.2,4.2-12.2s-1.4-9.1-4.2-12.2c-2.9-3.3-6.9-4.9-11.9-4.9
				c-5,0-9,1.6-11.9,4.9c-2.8,3.1-4.2,7.2-4.2,12.2s1.4,9.1,4.2,12.2c2.9,3.3,6.9,5,11.9,5C194.3,133.9,198.3,132.3,201.2,128.9z"/>
			<path fill="#1592F1" d="M229.9,86H255c6.1,0,11,1.3,14.6,4c3.7,2.7,5.5,6.4,5.5,11c0,3.2-0.7,5.8-2,7.8c-1.1,1.7-2.8,3-5,4.1
				c3.7,1,6.6,2.8,8.7,5.2c2.5,2.8,3.7,6.5,3.7,10.8c0,12.3-8.1,18.4-24.4,18.4h-26.2V86z M253.7,108.6c3.5,0,5.2-1.6,5.2-4.7
				c0-3.3-1.7-5-5-5h-8.2v9.7H253.7z M255.7,134.4c5.5,0,8.3-2.3,8.3-7c0-4.6-2.8-6.8-8.3-6.8h-10v13.8H255.7z"/>
			<path fill="#1592F1" d="M287.8,86h16.4v61.4h-16.4V86z"/>
			<path fill="#1592F1" d="M311.5,147.4c-0.6,0-0.6-0.3-0.3-0.9l27.1-46.7h-22.6V86h47.8c0.6,0,0.6,0.3,0.3,0.9l-27.2,46.7h24.9
				v13.8H311.5z"/>
			<path fill="#1592F1" d="M371.2,145.8c-1.8-1.7-2.7-3.8-2.7-6.4c0-2.6,0.9-4.7,2.7-6.4c1.7-1.6,3.8-2.5,6.3-2.5
				c2.4,0,4.5,0.8,6.3,2.5c1.9,1.7,2.8,3.8,2.8,6.4c0,2.5-0.9,4.7-2.8,6.4c-1.8,1.6-3.8,2.4-6.3,2.4
				C375,148.3,372.9,147.4,371.2,145.8z"/>
			<path fill="#1592F1" d="M420.1,148c-0.1,0.3-0.3,0.4-0.5,0.4c-0.2,0-0.4-0.1-0.6-0.4l-28.9-62h17.5l12.6,28.6L432.3,86h16.7
				L420.1,148z"/>
			<path fill="#1592F1" d="M470.1,116.8v30.6h-15.4V85.2c0-0.8,0.4-0.9,1.3-0.2l38.5,31.8V86h15.4v62.3c0,0.8-0.4,0.9-1.2,0.2
				L470.1,116.8z"/>
		</g>
	</g>
</g>
</svg>
