<svg version="1" xmlns="http://www.w3.org/2000/svg" width="933.333" height="933.333" viewBox="0 0 700.000000 700.000000"><path d="M307.7 20.6c-.1.1-4.2.5-9.2.8-8.6.6-11.6 1-18.7 2.1-1.8.3-5.3.8-7.8 1.1-2.5.3-7 1.2-10 1.9-3 .8-6.6 1.6-8 1.8-5.2 1-15.9 4-27 7.7-36.4 12-71.2 31.2-102.5 56.5-28 22.8-54.7 51.9-71.4 78-2.8 4.4-5.5 8.5-6.1 9.2-.5.7-1 1.4-1 1.6 0 .3-2.4 4.7-5.3 9.8-6 10.7-11.3 21.5-15.2 30.9-1.4 3.6-3.2 7.8-4 9.5-.7 1.6-1.7 4.3-2.1 6-.4 1.6-1 3.4-1.4 4C15.6 244.9 7.5 276 4.6 293c-.2 1.4-.7 4.1-1 6-1.3 7.6-1.6 9.8-2.3 17-1.6 15.5-.8 74.8 1.1 77.8.2.4.7 3.6 1.1 7.2.4 3.6 1 8.3 1.5 10.5.5 2.2 1.2 5.6 1.5 7.5 4.9 28.1 25 79.6 36.7 93.9 2.3 3 5.5 6.9 6.9 8.8 8.5 10.9 29.2 30.6 42.2 40.3 4.5 3.4 8.9 6.7 9.7 7.3 8.2 6.5 41.6 24.7 45.3 24.7.7 0 1.7.4 2.3.9 2.5 2.5 36.3 12.1 47.9 13.6 2.8.4 6.1.9 7.5 1.1 8.1 1.3 26.5 2 39 1.4l4.5-.1-7-2.5c-46.6-16.2-91-47.2-122.9-85.5-11.4-13.7-12.2-14.8-20-26.4-11-16.3-21.3-35.5-28.6-53-1.8-4.4-3.9-9.4-4.6-11-4.1-9.8-9.4-35.5-11.1-54-1.4-15.3-.7-49.2 1.2-63.3 1.1-7.2 1.6-10.8 2-12.2.2-.8.7-3.1 1-5 3.2-19.7 17.6-54.2 32.8-78.5 12.6-20.1 34.8-45 52.3-58.8 27.6-21.6 60.2-36.7 95.7-44.2 12.7-2.7 13.7-2.9 27.7-4.1 14.8-1.4 53-.7 55.9 1 .3.2 2.9.6 5.6 1 27.8 3.3 65.4 16.5 92.5 32.4 20.2 11.9 34.8 23.1 52.2 40 3.5 3.4 5 4.3 6 3.5.7-.6 7.6-4.3 15.3-8.3 7.7-4 15.8-8.3 18-9.5 2.2-1.2 10.3-5.5 18-9.5 7.7-4 16.7-8.7 20-10.5 3.3-1.8 11.9-6.3 19-10 7.2-3.8 13.2-7 13.4-7.2.6-.5-16.9-17.7-28.4-28-22-19.6-48.6-37.3-74.8-49.8-11.3-5.3-31-13.6-35.7-15-1.4-.4-3.8-1.3-5.5-2.1-1.6-.7-9.1-3.1-16.5-5.2-14.5-4.3-20.2-5.7-35-8.7-3.6-.7-8.3-1.5-10.5-1.8-2.2-.4-7.1-1-11-1.6-11.6-1.6-24.1-2.4-41.3-2.5-9-.1-16.4-.1-16.5 0z"/><path d="M280.7 127.6c-.1.1-4.2.4-9.2.8-13.5 1-17.9 1.6-30.5 4.2-72.3 15.2-127.5 63.8-157.5 138.5-4.5 11.1-8.8 25.6-10 33.9-.4 2.5-.9 5.4-1.2 6.5-.2 1.1-.6 3.8-.8 6-.3 2.2-.8 6.2-1.1 9-1 7.1-1.2 42.8-.3 49.4.4 3.1 1 8.1 1.3 11.1 1.8 16.7 6.2 33 13.3 50 3.7 8.8 15.8 32.8 17.3 34.4.5.4 1.9-1.1 3.1-3.5 2-3.8 2.3-5.8 2.2-14.9 0-5.8-.6-13-1.2-16-2-10.2-2.1-12.1-1-14.3.6-1.2 6.4-7.4 12.9-13.7 6.5-6.3 13.2-13.8 14.9-16.6 3.7-6.1 9.1-21.1 9.1-25.3 0-4.4-2.6-6.5-6.9-5.6-9.3 1.7-10.2 1.6-14.5-.5-12.6-6.1-26.1-26.6-31.9-48.5-2.5-9.5-2.6-12.5-.2-10.2 2.6 2.6 18.4 28.3 24 39 1.1 2.1 3.5 5.4 5.3 7.4 2.9 3.2 3.6 3.5 7.1 3 5.2-.7 35.4-14.8 41.6-19.5 2.7-2.1 6-5.3 7.3-7.2 2.1-3.1 2.3-4.3 1.8-9.7-1.3-14.6-10.4-21.9-19.3-15.5-1.6 1.1-3.8 1.9-4.9 1.7-1-.2-2.2-.4-2.7-.4-1.7-.2-10-8.7-12.3-12.7-3.9-6.6-4.6-10-2.6-12.4 1.5-1.9 2.1-2 5.2-.9 3.5 1.2 12.4 6.8 19.1 12 2 1.6 6 4.1 9 5.6 5 2.5 6.3 2.7 18.9 2.8 18.6.2 17.9-.1 27.4 12.8 3.2 4.3 6.5 8.1 7.3 8.4.9.4 3.5-.4 5.8-1.6 5.1-2.7 7-2.1 9.6 3.2 1.7 3.1 2.1 5.6 1.9 11.1-.6 16.6.7 20.9 9.6 32.8 8.4 11.2 14.6 14.4 17.9 9.4.9-1.3 2.4-7.2 3.5-13.2 3.3-19.1 4.3-20.9 22-38.1 10.2-9.9 14.8-13.3 18.1-13.3.5 0 2.7 1.6 4.9 3.6 4.4 4 7.3 10.7 8.5 19.4.9 6.8 2.9 11.7 5.6 14.1 1.2 1 5.6 3.2 9.8 4.8 4.2 1.7 13 5.8 19.5 9.1 18.7 9.5 23.5 9.9 28.6 2.8 2.6-3.5 2.9-4.7 2.7-10.6-.3-6.6-1.4-9.8-6.7-19.2-1.1-1.9-2-4.5-2-5.7 0-4.9 7.9-9.7 23-14.2 12.1-3.6 18-8.3 21.1-16.8 3-8.4 1-16.9-8.1-33.3-7.8-14.2-11.3-22.2-11.8-27-.4-4.1-.1-4.9 1.9-6.4 9.3-6.5 21.8-.4 26.8 13 3.4 9 6.3 11.5 8.9 7.4 2.7-4.4 1.8-9.5-3.8-20.8-6.5-13.1-6.8-16.8-1.9-24.6 5.3-8.2 8.8-15.4 8.4-17.3-.2-1-.4-2.1-.4-2.4-.2-1.1-14.2-11.3-24.5-17.8-34.8-21.9-78.4-35.6-117.6-37.1-9.5-.3-21.1-.6-21.3-.4zM464.3 223.2c.4 10.9-.6 14.9-5.2 21.1-6.7 8.9-8.5 13.4-8.6 20.9 0 4.8.4 7.2 1.6 8.3 1.4 1.4 1.7 1.2 3.4-2.7 4.9-11.7 7.8-16.8 12.3-21.7 2.8-3 5.2-6.6 5.5-8 1.7-8.2-3.8-26.1-7.9-26.1-1.2 0-1.4 1.7-1.1 8.2zM431.8 326.7c-3.4 3.9-5.1 15.7-2.8 19.3 1.1 1.7 15.4 2.3 14.6.5-4.6-10.6-8.1-18.4-9.1-19.8-1.1-1.6-1.3-1.6-2.7 0zM432 367c-.5 1.9-3 11.6-5.5 21.5-2.6 9.9-7.3 28.3-10.6 41-3.3 12.6-6.1 23.7-6.3 24.6-.3.9-.9 3.3-1.4 5.3l-1 3.6 50.8.2 50.9.3-9.2 9.9c-22 23.6-49.5 49.9-66.7 63.6-3.6 2.9-6.7 5.5-7 6-.3.4-8 6.3-17.2 13.1-27.8 20.6-50.9 34.6-76.6 46.4-18.5 8.4-42.6 16-57.2 18-2.5.3-7.9 1.1-12 1.8-8.4 1.3-47.5 1.6-56 .4-31.4-4.4-55.1-11.4-79.9-23.5-10.3-5.1-26.4-14.8-34.6-20.9l-5-3.8 5.9 7c6.9 8.1 30.9 32.1 38.1 38.1 26.3 21.8 53.9 37.2 83 46.4 3.9 1.2 7.7 2.3 8.5 2.5.8.2 3.3.8 5.5 1.3 6.7 1.8 18.8 4.1 24.6 4.8 3 .3 6.5.7 7.9 1 17.5 2.9 60.1 2 79.5-1.6 2.8-.5 6.4-1.2 8.1-1.5 8.4-1.3 41.8-11.2 48.9-14.4 1.1-.5 7.9-3.4 15-6.4 25-10.5 44.1-20.4 73.2-38 13.7-8.3 38.5-24.7 48.6-32.3l4.9-3.6-.6 4.9c-.4 2.6-1.1 7.5-1.6 10.8-.5 3.3-1.2 8.2-1.6 11-.3 2.7-.8 5.9-1 7-.2 1-.6 3.6-.9 5.7-1 7.8-1.6 11.7-3.9 26.5l-2.3 15.3h109.5l.7-2.8c.4-1.5.9-3.6 1-4.7.2-1.1 1.3-6.3 2.4-11.5 1.1-5.2 2.2-10.6 2.5-12 .2-1.4 2.7-13.5 5.6-27 2.8-13.5 5.3-25.5 5.6-26.8.2-1.2.6-3.2.8-4.5.2-1.2 1.4-6.5 2.5-11.7 1.1-5.2 2.2-10.6 2.5-12 .3-1.4.9-4.8 1.5-7.5.6-2.8 1.3-6.1 1.5-7.5.8-3.6 3.1-14.6 6.1-28.6 1.4-6.6 2.7-12.9 2.9-14 .2-1.1 2.1-10.1 4.1-20 2-9.8 3.9-19 4.1-20.4.3-1.4 1.6-7.7 3-14s4.2-20.1 6.4-30.5c2.1-10.5 4.8-23.4 6-28.9 1.1-5.4 1.8-10.1 1.5-10.4-.3-.3-59.9-.6-132.5-.6l-132.1-.1-.9 3.5z"/><path d="M341.5 382.1c-1.6 2.5.9 8.2 6.6 15.1 3.3 3.9 8 10.5 10.6 14.7 12.6 20.9 16 24.5 24.2 26.1 3.1.6 7.1 1.6 9 2 1.9.5 3.7.8 3.9.6.2-.2 1-2.5 1.7-5l1.4-4.6-2.7-.6c-7.8-1.7-10.2-2.6-13.2-4.6-1.8-1.3-3.8-3.2-4.4-4.3-2.1-3.8-11.9-19-12.5-19.5-.4-.3-1.4-1.5-2.2-2.7-2.5-3.7-11.2-12.6-15-15.6-3.8-2.8-6.3-3.4-7.4-1.6zM402.1 393.6c-7.7 3.7-9.1 5.4-9.1 11.3 0 4.5 4.5 16.1 6.8 17.5.8.5 3-6 4.8-14.3.3-1.4 1.4-5.8 2.5-9.9 1.2-4 1.9-7.4 1.7-7.5-.1-.1-3.2 1.2-6.7 2.9zM138.8 458.8c-.9 2.5-9.5 7.2-14 7.8l-4.9.7.6 8.1c.5 5.5.2 9.5-.7 12.6-2 6.8-1.3 8.9 3.7 11.1 2.4 1 5.1 1.6 6 1.3 2.1-.9 6.5-9.7 10.3-20.9 3.4-9.9 4.3-16 3.1-19.3-.8-2.2-3.4-3-4.1-1.4zM407 480.9c-7.9 3.2-12.3 8-16.5 17.8-2 4.8-4.3 10.1-5.1 11.8-2.6 5.9-6.4 18.4-6.4 21.3 0 5.3 2.4 4.8 17.4-4.1 7.8-4.6 16.3-9.2 18.9-10.2 5.5-2.1 21.7-17.3 32.5-30.8l6.3-7.7-21.3.1c-18.2 0-22 .3-25.8 1.8z"/></svg>